<svg xmlns="http://www.w3.org/2000/svg" width="81.792" height="69.048" viewBox="0 0 81.792 69.048">
  <g id="Camada_x0020_1" transform="translate(0.502 0.522)">
    <g id="_2495797311696" transform="translate(0 0)">
      <g id="Grupo_162645" data-name="Grupo 162645" transform="translate(12.014)">
        <path id="Caminho_17" data-name="Caminho 17" d="M427.193-21.937l-3.788,9.219-1.919-.789,3.788-9.219.952-.643Zm-1.92-.789a1.038,1.038,0,0,1,1.354-.565,1.038,1.038,0,0,1,.565,1.354l-1.92-.789Zm-7.193-.58,8.145-.063.016,2.075-8.145.063-.8-.372Zm.016,2.075a1.038,1.038,0,0,1-1.046-1.029,1.038,1.038,0,0,1,1.029-1.046Zm-2.117-5.176,2.9,3.473L417.293-21.6l-2.9-3.473,1.163-1.636.429.3Zm-1.592,1.332a1.038,1.038,0,0,1,.13-1.462,1.038,1.038,0,0,1,1.462.13Zm-14.307-7.486,15.47,5.849-.734,1.941-15.47-5.849-.2-1.838Zm-.734,1.941a1.038,1.038,0,0,1-.6-1.337,1.038,1.038,0,0,1,1.337-.6Zm-8.6,3.678,8.4-5.516,1.139,1.735-8.4,5.516-.823.139Zm1.139,1.735a1.038,1.038,0,0,1-1.437-.3,1.038,1.038,0,0,1,.3-1.437Zm-6.5-3.434,6.189,1.56-.507,2.012-6.189-1.56-.784-1.006Zm-.507,2.012a1.038,1.038,0,0,1-.753-1.26,1.038,1.038,0,0,1,1.26-.753Zm-.784,5.687v-6.693h2.076v6.693l-.1.433Zm2.076,0a1.038,1.038,0,0,1-1.038,1.038,1.038,1.038,0,0,1-1.038-1.038Zm-5.579,7.4,3.6-7.83,1.886.867-3.6,7.83-1.9-.024Zm1.886.867a1.038,1.038,0,0,1-1.376.509,1.038,1.038,0,0,1-.509-1.376l1.886.867Zm-.254,3.8-1.642-3.82,1.906-.82,1.642,3.82-.182,1.1-1.725-.284Zm1.906-.82a1.038,1.038,0,0,1-.543,1.363,1.038,1.038,0,0,1-1.363-.543Zm-4.819,3.157L382.4-9.986,383.943-8.6l-3.094,3.441-1.173.263Zm1.543,1.388a1.038,1.038,0,0,1-1.465.078,1.038,1.038,0,0,1-.078-1.465Zm-3.527-2.976,3.157,1.326-.8,1.914-3.157-1.326.186-1.972Zm-.8,1.914a1.038,1.038,0,0,1-.555-1.359,1.038,1.038,0,0,1,1.359-.555Zm-12,.618L376.7-8.192l.431,2.03L364.949-3.573,363.742-4.9Zm.431,2.03a1.038,1.038,0,0,1-1.231-.8,1.038,1.038,0,0,1,.8-1.231Zm-2.642,3.3L363.742-4.9l1.982.615L364.289.341l-1.982-.615h0Zm1.982.615a1.038,1.038,0,0,1-1.982-.615Zm-2.808,2.046.825-2.661,1.982.615L363.464,3l-.346.505ZM363.464,3a1.038,1.038,0,0,1-1.982-.615Zm-2.723-.257,1.087-.863,1.29,1.625-1.087.863-.411.2-.879-1.824Zm1.29,1.625a1.038,1.038,0,1,1-1.29-1.625l1.29,1.625Zm5.588-1.191-6,1.39-.468-2.022,6-1.39.367-.018Zm-.468-2.022a1.038,1.038,0,1,1,.468,2.022Zm4.521,2.609-4.42-.569.265-2.058,4.42.569.9,1.115-1.166.943Zm.265-2.058a1.038,1.038,0,1,1-.265,2.058Zm-1.356,3.216.189-2.273,2.068.172L372.65,5.1l-.824.93-1.244-1.1Zm2.068.172a1.038,1.038,0,0,1-2.068-.172Zm10.163-1.343L371.826,6.025l-.421-2.032L382.392,1.72l1.21.739-.79,1.293Zm-.421-2.032a1.038,1.038,0,0,1,.421,2.032l-.421-2.032Zm1.483,9.5L381.6,3.013l2-.554,2.273,8.208-1,1.315Zm2-.554a1.038,1.038,0,1,1-2,.554Zm2.789,1.315h-3.789V9.907h3.789l.984,1.366Zm0-2.075a1.038,1.038,0,1,1,0,2.075V9.907Zm-2.942,6.582,1.958-5.872,1.969.657-1.958,5.872-1.891.177-.078-.833Zm1.969.657a1.038,1.038,0,1,1-1.969-.657l1.969.657Zm.572,4.6-2.463-4.42,1.813-1.01,2.463,4.42-.445,1.434Zm1.813-1.01a1.038,1.038,0,1,1-1.813,1.01Zm8.079-2.8-8.524,4.23-.922-1.859,8.524-4.23.287-.094Zm-.922-1.859a1.037,1.037,0,1,1,.922,1.859Zm10.991.184L397.868,18.03l-.349-2.046,10.356-1.768.578,1.979-.229.067Zm-.349-2.046a1.038,1.038,0,1,1,.349,2.046l-.349-2.046Zm5.061.084-4.483,1.895-.808-1.912,4.483-1.895,1.434,1.079-.626.833Zm-.808-1.912a1.038,1.038,0,1,1,.808,1.912Zm1.939-3.162-.5,4.24-2.061-.245.5-4.24.341-.653Zm-2.061-.245a1.038,1.038,0,1,1,2.061.245Zm3.437-.627-1.717,1.525-1.379-1.551L414.065,6.8l1.711.957ZM414.065,6.8a1.038,1.038,0,1,1,1.379,1.551L414.065,6.8Zm2.268-2.18-.557,3.137L413.733,7.4l.557-3.137,1.379-.793Zm-2.043-.363a1.038,1.038,0,0,1,2.043.363Zm2.558,1.85-1.893-.694.714-1.948,1.893.694.534,1.506-1.248.442Zm.714-1.948a1.037,1.037,0,0,1-.714,1.948l.714-1.948ZM421.189.489,418.1,5.668,416.314,4.6l3.094-5.178,1.914.359ZM419.408-.575a1.038,1.038,0,0,1,1.423-.358,1.038,1.038,0,0,1,.358,1.423Zm.714-6.713,1.2,7.071-2.046.347-1.2-7.071.738-1.171Zm-2.046.347a1.038,1.038,0,0,1,.849-1.2,1.038,1.038,0,0,1,1.2.849Zm7.054-.818-5.746,1.642-.57-2,5.746-1.642,1.194.5Zm-.57-2a1.038,1.038,0,0,1,1.283.713,1.038,1.038,0,0,1-.713,1.283l-.57-2Zm-1.206-3.86,2.4,4.357-1.818,1-2.4-4.357-.051-.895Zm-1.818,1a1.038,1.038,0,0,1,.408-1.409,1.038,1.038,0,0,1,1.409.408Z" transform="translate(-360.349 32.629)" fill="#1d2331" stroke="#1d2331" stroke-width="1"/>
      </g>
      <g id="Grupo_162646" data-name="Grupo 162646" transform="translate(65.381 22.835)">
        <path id="Caminho_18" data-name="Caminho 18" d="M2157.489,743.891l-1.2-7.071,2.046-.347,1.2,7.071-.133.706Zm2.046-.347a1.038,1.038,0,0,1-2.046.347Zm-5.008,4.82,3.094-5.178,1.781,1.065-3.094,5.178-1.248.442Zm1.781,1.065a1.038,1.038,0,0,1-1.781-1.065Zm-2.427-2.2,1.893.694-.714,1.948-1.893-.694-.665-1.155Zm-.714,1.948a1.037,1.037,0,1,1,.714-1.948Zm-1.221,1.981.557-3.137,2.044.363-.557,3.137-1.917.343Zm2.043.363a1.038,1.038,0,1,1-2.043-.363Zm-.35,3.015-1.566-2.672,1.79-1.05,1.567,2.672-.968,1.56Zm1.79-1.05a1.038,1.038,0,0,1-1.79,1.05Zm3.01,1.838-3.977-.277.145-2.07,3.977.278.961,1.132Zm.144-2.07a1.038,1.038,0,0,1-.144,2.07Zm1.2-1.47-.244,2.6-2.066-.194.244-2.6.272-.609Zm-2.066-.194a1.037,1.037,0,1,1,2.066.194Zm8.985-6.947-7.191,7.75-1.522-1.411,7.191-7.75,1.8.755Zm-1.521-1.411a1.038,1.038,0,0,1,1.521,1.411Zm2.146-6.576-.349,7.331-2.073-.1.349-7.331,1.5-.881Zm-2.073-.1a1.038,1.038,0,1,1,2.073.1Zm-1.74-2.481,3.237,1.6-.92,1.86-3.237-1.6.175-1.927Zm-.919,1.86a1.037,1.037,0,1,1,.919-1.86Zm-5.572-.286,5.746-1.641.57,2-5.746,1.642-1.308-.824Zm.57,2a1.038,1.038,0,0,1-.57-2Z" transform="translate(-2151.929 -733.966)" fill="#1d2331" stroke="#1d2331" stroke-width="1"/>
      </g>
      <g id="Grupo_162647" data-name="Grupo 162647" transform="translate(48.321 39.169)">
        <path id="Caminho_19" data-name="Caminho 19" d="M1598.193,1282.8l1.567,2.672-1.79,1.05-1.567-2.672.206-1.3Zm-1.79,1.05a1.038,1.038,0,0,1,1.79-1.05Zm-1.511.225,1.717-1.525,1.379,1.551-1.717,1.525-1.72-.9Zm1.378,1.551a1.038,1.038,0,1,1-1.378-1.551Zm-2.225,3.342.505-4.24,2.061.245-.505,4.24-.626.833Zm2.061.245a1.038,1.038,0,0,1-2.061-.245Zm-5.917.816,4.483-1.895.808,1.912-4.483,1.895-.229.067Zm.808,1.912a1.038,1.038,0,0,1-.808-1.912Zm-10.934-.21,10.356-1.768.349,2.046-10.356,1.768-1.149-.665Zm.349,2.046a1.038,1.038,0,0,1-.349-2.046Zm.056,2.611-1.2-3.276,1.948-.716,1.2,3.276-1.02,1.395Zm1.948-.716a1.038,1.038,0,1,1-1.948.716Zm13.363,2.023-14.383-.628.091-2.073,14.383.628.886,1.495Zm.09-2.073a1.038,1.038,0,0,1-.09,2.073Zm2.98-2.764-2.094,4.259-1.862-.916,2.095-4.259.508-.49Zm-1.862-.916a1.038,1.038,0,0,1,1.862.916Zm5.892-.619-4.538,2.025-.845-1.9,4.538-2.025,1.456,1.044Zm-.846-1.9a1.038,1.038,0,0,1,.846,1.9Zm1.84-3.056-.384,4.1-2.066-.194.384-4.1,1.105-.938Zm-2.066-.194a1.038,1.038,0,1,1,2.066.194Zm-2.872-1.216,3.977.278-.145,2.07-3.977-.278-.823-.51Zm-.145,2.07a1.038,1.038,0,1,1,.145-2.07Z" transform="translate(-1579.2 -1282.291)" fill="#1d2331" stroke="#1d2331" stroke-width="1"/>
      </g>
      <g id="Grupo_162648" data-name="Grupo 162648" transform="translate(0 33.759)">
        <path id="Caminho_20" data-name="Caminho 20" d="M-3.679,1115.844l2.463,4.42-1.813,1.01-2.463-4.42-.078-.833Zm-1.813,1.01a1.038,1.038,0,0,1,.4-1.411,1.038,1.038,0,0,1,1.411.4Zm3.849-6.049-1.958,5.872-1.969-.656,1.958-5.872.984-.709.984,1.366Zm-1.969-.656a1.038,1.038,0,0,1,1.313-.656,1.038,1.038,0,0,1,.656,1.313Zm-2.8-.709h3.789v2.075H-6.416l-1-.76Zm0,2.075a1.038,1.038,0,0,1-1.038-1.037,1.038,1.038,0,0,1,1.038-1.037Zm-1.273-9.523,2.273,8.208-2,.554-2.273-8.208.79-1.293Zm-2,.554a1.038,1.038,0,0,1,.723-1.277,1.038,1.038,0,0,1,1.277.723Zm-10.2.98,10.987-2.273.421,2.032-10.987,2.273-1.244-1.1Zm.421,2.032a1.038,1.038,0,0,1-1.226-.806,1.038,1.038,0,0,1,.806-1.226Zm1.013-3.2-.189,2.273-2.068-.172.189-2.273,1.167-.943Zm-2.068-.172a1.038,1.038,0,0,1,1.12-.948,1.038,1.038,0,0,1,.948,1.12Zm-3.253-1.512,4.42.569-.265,2.058-4.42-.569-.1-2.04Zm-.265,2.058a1.038,1.038,0,0,1-.9-1.162,1.038,1.038,0,0,1,1.162-.9Zm-6.1-.651,6-1.39.468,2.022-6,1.39-.832-1.859Zm.468,2.022a1.038,1.038,0,0,1-1.245-.777,1.038,1.038,0,0,1,.777-1.245Zm-3.61.1,2.778-1.958,1.2,1.7-2.778,1.958-1.545-1.273Zm1.2,1.7a1.038,1.038,0,0,1-1.446-.25,1.038,1.038,0,0,1,.25-1.446Zm-5.965,8.577,4.42-9.85,1.893.85-4.42,9.85-.534.527Zm1.893.849a1.038,1.038,0,0,1-1.371.522,1.038,1.038,0,0,1-.522-1.371Zm-5.148.265,3.789-1.642.825,1.9-3.789,1.642-1.247-1.569Zm.825,1.9a1.038,1.038,0,0,1-1.365-.539,1.038,1.038,0,0,1,.539-1.365Zm-2.274-.18,1.026-1.389,1.669,1.233-1.026,1.389-.835.421Zm1.669,1.233a1.038,1.038,0,0,1-1.451.218,1.038,1.038,0,0,1-.218-1.451Zm9.727.421H-41.919v-2.075h10.561l.547.155Zm0-2.075a1.038,1.038,0,0,1,1.038,1.037,1.038,1.038,0,0,1-1.038,1.038Zm2.61,3.876-3.157-1.957,1.093-1.764,3.157,1.957-.547,1.92Zm1.093-1.764a1.038,1.038,0,0,1,.335,1.429,1.038,1.038,0,0,1-1.429.335Zm5.515,1.92H-28.2v-2.075h6.062l1.013.812Zm0-2.075a1.038,1.038,0,0,1,1.038,1.038,1.038,1.038,0,0,1-1.038,1.037Zm1.26,11.492-2.273-10.229,2.026-.451,2.273,10.229-1.173,1.25Zm2.026-.45a1.038,1.038,0,0,1-.788,1.238,1.038,1.038,0,0,1-1.238-.788Zm3.689,2.009-4.862-.758.32-2.051,4.862.758.877,1.062Zm.32-2.051a1.038,1.038,0,0,1,.865,1.185,1.038,1.038,0,0,1-1.185.865Zm-1.26,2.756.063-1.767,2.074.074-.063,1.768-1.368.947Zm2.074.074a1.038,1.038,0,0,1-1.074,1,1.038,1.038,0,0,1-1-1.074Zm2.341,2.194-3.709-1.248.662-1.967,3.709,1.248.414,1.706Zm.662-1.967a1.038,1.038,0,0,1,.653,1.314,1.038,1.038,0,0,1-1.315.653Zm4.787-2.8-4.373,4.507-1.489-1.445,4.373-4.507.314-.221Zm-1.489-1.445a1.038,1.038,0,0,1,1.467-.022,1.038,1.038,0,0,1,.022,1.467Zm10.81-2.732-9.635,4.4-.862-1.888,9.635-4.4L3.4,1125.7l-.318.226Zm-.862-1.888a1.038,1.038,0,0,1,.862,1.888l-.862-1.888Zm6.137-3.5L3.4,1125.7l-1.5-1.437,4.957-5.166,1.723.36-.225,1.077Zm-1.5-1.437a1.038,1.038,0,1,1,1.5,1.437Zm.518-2.916,1.2,3.276-1.948.716-1.2-3.276.513-1.287,1.435.571Zm-1.948.716a1.038,1.038,0,0,1,1.948-.716Zm-8.011,2.943,8.524-4.23.922,1.859-8.524,4.23-1.368-.425.445-1.434Zm.922,1.859a1.038,1.038,0,0,1-1.391-.468,1.038,1.038,0,0,1,.468-1.391l.922,1.859Z" transform="translate(42.957 -1100.662)" fill="#1d2331" stroke="#1d2331" stroke-width="1"/>
      </g>
    </g>
  </g>
</svg>
