<svg xmlns="http://www.w3.org/2000/svg" width="66.953" height="58.123" viewBox="0 0 66.953 58.123">
  <g id="diamond" transform="translate(0.521 0.5)">
    <g id="Grupo_162630" data-name="Grupo 162630" transform="translate(0 0.001)">
      <g id="Grupo_162629" data-name="Grupo 162629" transform="translate(0 0)">
        <path id="Caminho_8" data-name="Caminho 8" d="M65.656,47.722,54.67,34.54a1.1,1.1,0,0,0-.844-.394H12.083a1.1,1.1,0,0,0-.844.394L.255,47.722a1.1,1.1,0,0,0,.844,1.8H64.812a1.1,1.1,0,0,0,.844-1.8Zm-62.212-.4L12.6,36.342H53.312l9.154,10.985Z" transform="translate(0.001 -34.146)" fill="#1d2331" stroke="#1d2331" stroke-width="1"/>
      </g>
    </g>
    <g id="Grupo_162632" data-name="Grupo 162632" transform="translate(10.986 0)">
      <g id="Grupo_162631" data-name="Grupo 162631">
        <path id="Caminho_9" data-name="Caminho 9" d="M108.329,34.815a1.1,1.1,0,0,0-1.015-.678H86.442a1.1,1.1,0,0,0-.949,1.652l7.69,13.182a1.1,1.1,0,0,0,.807.536,1.214,1.214,0,0,0,.141.009,1.1,1.1,0,0,0,.778-.322L108.09,36.012A1.1,1.1,0,0,0,108.329,34.815ZM94.361,46.634l-6.008-10.3h16.307Z" transform="translate(-85.343 -34.137)" fill="#1d2331" stroke="#1d2331" stroke-width="1"/>
      </g>
    </g>
    <g id="Grupo_162634" data-name="Grupo 162634" transform="translate(0 13.181)">
      <g id="Grupo_162633" data-name="Grupo 162633">
        <path id="Caminho_10" data-name="Caminho 10" d="M65.8,137.14a1.1,1.1,0,0,0-.984-.612H1.1a1.1,1.1,0,0,0-.872,1.765l31.857,41.743a1.1,1.1,0,0,0,1.744,0l31.857-41.743A1.1,1.1,0,0,0,65.8,137.14Zm-32.84,40.421L3.321,138.726H62.595Z" transform="translate(-0.002 -136.528)" fill="#1d2331" stroke="#1d2331" stroke-width="1"/>
      </g>
    </g>
    <g id="Grupo_162636" data-name="Grupo 162636" transform="translate(0.001 13.181)">
      <g id="Grupo_162635" data-name="Grupo 162635" transform="translate(0 0)">
        <path id="Caminho_11" data-name="Caminho 11" d="M34.013,179.039,20.831,137.3a1.1,1.1,0,0,0-1.048-.768H1.108a1.1,1.1,0,0,0-.872,1.765l31.857,41.743a1.1,1.1,0,0,0,.873.433,1.068,1.068,0,0,0,.505-.125A1.1,1.1,0,0,0,34.013,179.039ZM3.328,138.726H18.978l11.047,34.981Z" transform="translate(-0.01 -136.528)" fill="#1d2331" stroke="#1d2331" stroke-width="1"/>
      </g>
    </g>
    <g id="Grupo_162638" data-name="Grupo 162638" transform="translate(31.857 0)">
      <g id="Grupo_162637" data-name="Grupo 162637">
        <path id="Caminho_12" data-name="Caminho 12" d="M270.393,34.688a1.1,1.1,0,0,0-.952-.551H248.568a1.1,1.1,0,0,0-.777,1.875l13.182,13.182a1.1,1.1,0,0,0,.777.322,1.248,1.248,0,0,0,.142-.009,1.1,1.1,0,0,0,.807-.536l7.69-13.182A1.1,1.1,0,0,0,270.393,34.688ZM261.52,46.634l-10.3-10.3h16.307Z" transform="translate(-247.47 -34.137)" fill="#1d2331" stroke="#1d2331" stroke-width="1"/>
      </g>
    </g>
    <g id="Grupo_162640" data-name="Grupo 162640" transform="translate(31.858 13.183)">
      <g id="Grupo_162639" data-name="Grupo 162639">
        <path id="Caminho_13" data-name="Caminho 13" d="M281.416,137.158a1.1,1.1,0,0,0-.984-.612H261.757a1.1,1.1,0,0,0-1.048.768l-13.182,41.743a1.1,1.1,0,0,0,1.92,1L281.3,138.311A1.1,1.1,0,0,0,281.416,137.158Zm-29.9,36.565,11.047-34.981h15.649Z" transform="translate(-247.476 -136.546)" fill="#1d2331" stroke="#1d2331" stroke-width="1"/>
      </g>
    </g>
  </g>
</svg>
