<svg xmlns="http://www.w3.org/2000/svg" width="56.585" height="56.585" viewBox="0 0 56.585 56.585">
  <path id="Equalizer_1_" d="M66.409,18.529H39.984a8.663,8.663,0,0,0-16.793,0H14.176a2.176,2.176,0,1,0,0,4.353h9.014a8.663,8.663,0,0,0,16.793,0H66.409a2.176,2.176,0,0,0,0-4.353ZM31.587,25.058a4.353,4.353,0,1,1,4.353-4.353A4.357,4.357,0,0,1,31.587,25.058ZM66.409,38.116H57.394a8.663,8.663,0,0,0-16.793,0H14.176a2.176,2.176,0,1,0,0,4.353H40.6a8.663,8.663,0,0,0,16.793,0h9.014a2.176,2.176,0,0,0,0-4.353ZM49,44.645a4.353,4.353,0,1,1,4.353-4.353A4.357,4.357,0,0,1,49,44.645ZM66.409,57.7H39.984a8.663,8.663,0,0,0-16.793,0H14.176a2.176,2.176,0,1,0,0,4.353h9.014a8.663,8.663,0,0,0,16.793,0H66.409a2.176,2.176,0,0,0,0-4.353ZM31.587,64.232A4.353,4.353,0,1,1,35.94,59.88,4.357,4.357,0,0,1,31.587,64.232Z" transform="translate(-12 -12)" fill="#1d2331"/>
</svg>
