<svg xmlns="http://www.w3.org/2000/svg" width="76.574" height="75.567" viewBox="0 0 76.574 75.567">
  <g id="saw-blade_1_" data-name="saw-blade (1)" transform="translate(0.257 0.268)">
    <path id="Caminho_14" data-name="Caminho 14" d="M76.543,38.4a1.207,1.207,0,0,0-1.882-1.2A11.107,11.107,0,0,1,69.914,39.1c0-.217.008-.435.008-.653,0-.753-.029-1.526-.087-2.3a10.8,10.8,0,0,0,4.4-10.733,1.207,1.207,0,0,0-2.173-.483,11.1,11.1,0,0,1-3.813,3.4q-.483-1.419-1.087-2.758a10.8,10.8,0,0,0,.461-11.591,1.207,1.207,0,0,0-2.212.291,11.123,11.123,0,0,1-2.423,4.5c-.618-.768-1.274-1.508-1.961-2.213A10.8,10.8,0,0,0,57.5,5.5a1.207,1.207,0,0,0-1.979,1.03,11.119,11.119,0,0,1-.735,5.056c-.838-.507-1.708-.978-2.6-1.409A10.8,10.8,0,0,0,45.093,1a1.207,1.207,0,0,0-1.507,1.646,11.107,11.107,0,0,1,1.036,5.009q-1.449-.283-2.922-.431a10.8,10.8,0,0,0-9.81-6.209,1.207,1.207,0,0,0-.854,2.061,11.108,11.108,0,0,1,2.686,4.346c-.966.15-1.938.348-2.9.59a10.79,10.79,0,0,0-11.335-2.47,1.207,1.207,0,0,0-.1,2.234A11.108,11.108,0,0,1,23.4,10.942q-1.289.712-2.519,1.548a10.8,10.8,0,0,0-11.5,1.55,1.207,1.207,0,0,0,.671,2.127,11.108,11.108,0,0,1,4.858,1.606c-.654.746-1.271,1.52-1.845,2.313A10.792,10.792,0,0,0,2.794,25.479a1.207,1.207,0,0,0,1.358,1.77,11.077,11.077,0,0,1,5.109-.156c-.362.93-.679,1.869-.945,2.808a10.8,10.8,0,0,0-7.8,8.582,1.207,1.207,0,0,0,1.882,1.2A11.108,11.108,0,0,1,7.149,37.79c-.008.217-.008.435-.008.653,0,.753.029,1.526.087,2.3a10.8,10.8,0,0,0-4.4,10.735A1.207,1.207,0,0,0,5,51.965a11.1,11.1,0,0,1,3.813-3.4q.483,1.417,1.087,2.758a10.8,10.8,0,0,0-.461,11.591,1.207,1.207,0,0,0,2.212-.291,11.123,11.123,0,0,1,2.423-4.5c.618.768,1.274,1.508,1.961,2.213a10.8,10.8,0,0,0,3.527,11.057,1.207,1.207,0,0,0,1.979-1.03,11.118,11.118,0,0,1,.735-5.056c.838.507,1.708.978,2.6,1.409a10.8,10.8,0,0,0,7.1,9.176,1.207,1.207,0,0,0,1.507-1.646,11.108,11.108,0,0,1-1.037-5q1.449.283,2.922.431a10.8,10.8,0,0,0,9.811,6.2,1.207,1.207,0,0,0,.854-2.061,11.1,11.1,0,0,1-2.686-4.346c.966-.15,1.939-.348,2.9-.59a10.79,10.79,0,0,0,11.335,2.47,1.207,1.207,0,0,0,.1-2.229,11.108,11.108,0,0,1-4.012-3.166q1.289-.712,2.519-1.548a10.8,10.8,0,0,0,11.5-1.554A1.207,1.207,0,0,0,67,60.719a11.108,11.108,0,0,1-4.858-1.606c.654-.746,1.271-1.52,1.845-2.313a10.778,10.778,0,0,0,10.278-5.394,1.207,1.207,0,0,0-1.358-1.77,11.108,11.108,0,0,1-5.1.153c.362-.928.677-1.868.944-2.808A10.8,10.8,0,0,0,76.543,38.4ZM65.055,51.092a1.207,1.207,0,0,0,.724.656,13.825,13.825,0,0,0,4.538.68,8.422,8.422,0,0,1-6.721,1.9,1.2,1.2,0,0,0-1.175.509,29.146,29.146,0,0,1-2.969,3.643,1.207,1.207,0,0,0,.121,1.783,13.563,13.563,0,0,0,4.039,2.2,8.393,8.393,0,0,1-6.968-.519,1.207,1.207,0,0,0-1.28.08,29.079,29.079,0,0,1-4.027,2.415,1.207,1.207,0,0,0-.49,1.719,13.572,13.572,0,0,0,3.045,3.442h-.052a8.418,8.418,0,0,1-6.317-2.867,1.207,1.207,0,0,0-1.227-.362,28.856,28.856,0,0,1-4.612.887A1.207,1.207,0,0,0,40.633,68.7a13.65,13.65,0,0,0,1.681,4.272,8.419,8.419,0,0,1-5.006-4.879,1.207,1.207,0,0,0-1.031-.763,29,29,0,0,1-4.636-.734,1.143,1.143,0,0,0-.285-.035,1.207,1.207,0,0,0-1.2,1.036,13.561,13.561,0,0,0,.121,4.588,8.413,8.413,0,0,1-3.035-6.29,1.207,1.207,0,0,0-.706-1.067,28.8,28.8,0,0,1-4.1-2.283,1.207,1.207,0,0,0-1.736.432,13.606,13.606,0,0,0-1.457,4.346,8.41,8.41,0,0,1-.7-6.951,1.207,1.207,0,0,0-.3-1.246,29.345,29.345,0,0,1-3.076-3.55,1.207,1.207,0,0,0-.845-.483,1.227,1.227,0,0,0-.93.3,13.591,13.591,0,0,0-2.865,3.587,8.414,8.414,0,0,1,1.713-6.761,1.207,1.207,0,0,0,.144-1.274,28.925,28.925,0,0,1-1.671-4.392A1.207,1.207,0,0,0,9.1,45.768a13.643,13.643,0,0,0-3.913,2.394,8.414,8.414,0,0,1,3.93-5.772,1.207,1.207,0,0,0,.571-1.146c-.091-.948-.138-1.891-.138-2.8,0-.639.029-1.27.069-1.9a1.207,1.207,0,0,0-.337-.916,1.175,1.175,0,0,0-.906-.362,13.534,13.534,0,0,0-4.5.914A8.406,8.406,0,0,1,9.536,32.1a1.207,1.207,0,0,0,.928-.883,28.855,28.855,0,0,1,1.545-4.441,1.207,1.207,0,0,0-.724-1.634,13.458,13.458,0,0,0-4.538-.68,8.42,8.42,0,0,1,6.721-1.9,1.2,1.2,0,0,0,1.175-.51,29.254,29.254,0,0,1,2.969-3.643,1.207,1.207,0,0,0-.121-1.783,13.563,13.563,0,0,0-4.039-2.2,8.4,8.4,0,0,1,6.968.519,1.207,1.207,0,0,0,1.28-.08,29.083,29.083,0,0,1,4.025-2.415,1.207,1.207,0,0,0,.491-1.719,13.557,13.557,0,0,0-3.047-3.447h.052a8.415,8.415,0,0,1,6.317,2.867,1.207,1.207,0,0,0,1.227.362,28.986,28.986,0,0,1,4.612-.887,1.207,1.207,0,0,0,1.053-1.449,13.65,13.65,0,0,0-1.681-4.272,8.419,8.419,0,0,1,5.006,4.879,1.207,1.207,0,0,0,1.031.763,29,29,0,0,1,4.636.734,1.207,1.207,0,0,0,1.48-1A13.561,13.561,0,0,0,46.781,4.7a8.413,8.413,0,0,1,3.035,6.29,1.207,1.207,0,0,0,.706,1.067,28.8,28.8,0,0,1,4.1,2.283,1.207,1.207,0,0,0,1.736-.432,13.605,13.605,0,0,0,1.457-4.346,8.41,8.41,0,0,1,.7,6.951,1.207,1.207,0,0,0,.3,1.246A29.263,29.263,0,0,1,61.9,21.312a1.207,1.207,0,0,0,1.778.185,13.591,13.591,0,0,0,2.867-3.591,8.414,8.414,0,0,1-1.713,6.761,1.207,1.207,0,0,0-.144,1.274,28.926,28.926,0,0,1,1.671,4.392,1.207,1.207,0,0,0,1.608.785,13.643,13.643,0,0,0,3.913-2.4,8.414,8.414,0,0,1-3.93,5.772,1.207,1.207,0,0,0-.571,1.146c.091.948.138,1.891.138,2.8,0,.639-.028,1.27-.069,1.9a1.207,1.207,0,0,0,.337.918,1.172,1.172,0,0,0,.906.362,13.534,13.534,0,0,0,4.5-.914,8.406,8.406,0,0,1-5.658,4.08,1.207,1.207,0,0,0-.928.883,28.763,28.763,0,0,1-1.545,4.441A1.207,1.207,0,0,0,65.055,51.092Z" transform="translate(-0.501 -0.928)" fill="#1d2331" stroke="#1d2331" stroke-width="0.5"/>
    <path id="Caminho_15" data-name="Caminho 15" d="M36.354,11A25.354,25.354,0,1,0,61.709,36.354,25.354,25.354,0,0,0,36.354,11Zm0,48.294a22.94,22.94,0,1,1,22.94-22.94,22.94,22.94,0,0,1-22.94,22.94Z" transform="translate(1.676 1.161)" fill="#1d2331" stroke="#1d2331" stroke-width="0.5"/>
    <path id="Caminho_16" data-name="Caminho 16" d="M33.451,25A8.451,8.451,0,1,0,41.9,33.451,8.451,8.451,0,0,0,33.451,25Zm0,14.488a6.037,6.037,0,1,1,6.037-6.037A6.037,6.037,0,0,1,33.451,39.488Z" transform="translate(4.579 4.064)" fill="#1d2331" stroke="#1d2331" stroke-width="0.5"/>
  </g>
</svg>
